<svg width="32" height="32" viewBox="0 0 32 32" fill="none" xmlns="http://www.w3.org/2000/svg">
<g clip-path="url(#clip0_8368_6884)" filter="url(#filter0_d_8368_6884)">
<path d="M14.9402 13.5L13.6202 14.82C13.4195 14.0117 12.954 13.2939 12.298 12.7809C11.6419 12.2679 10.8331 11.9892 10.0002 11.9892C9.16743 11.9892 8.35857 12.2679 7.70253 12.7809C7.04649 13.2939 6.58101 14.0117 6.38024 14.82L5.06024 13.5L4.00024 14.56L5.72024 16.28L5.50024 16.5V18H4.00024V19.5H5.50024V19.58C5.57675 20.0687 5.7145 20.5458 5.91024 21L4.00024 22.94L5.06024 24L6.71024 22.35C7.10281 22.8509 7.60142 23.2586 8.17026 23.5438C8.7391 23.8291 9.36405 23.9849 10.0002 24C10.6364 23.9849 11.2614 23.8291 11.8302 23.5438C12.3991 23.2586 12.8977 22.8509 13.2902 22.35L14.9402 24L16.0002 22.94L14.0902 21C14.2884 20.5362 14.4262 20.0489 14.5002 19.55V19.45H16.0002V18H14.5002V16.5L14.2802 16.28L16.0002 14.56L14.9402 13.5ZM10.0002 13.5C10.597 13.5 11.1693 13.7371 11.5912 14.159C12.0132 14.581 12.2502 15.1533 12.2502 15.75H7.75024C7.75024 15.1533 7.9873 14.581 8.40925 14.159C8.83121 13.7371 9.40351 13.5 10.0002 13.5ZM13.0002 19.5C12.927 20.2709 12.5874 20.9921 12.0398 21.5396C11.4923 22.0871 10.7711 22.4267 10.0002 22.5C9.22939 22.4267 8.50817 22.0871 7.96064 21.5396C7.41311 20.9921 7.07351 20.2709 7.00024 19.5V17.25H13.0002V19.5ZM27.7602 9.6V10.86L17.5002 17.37V15.6L26.0002 10.23L13.0002 2V11.46C12.5433 11.139 12.0365 10.8958 11.5002 10.74V0.63L12.6402 0L27.7602 9.6Z" fill="#424242"/>
</g>
<defs>
<filter id="filter0_d_8368_6884" x="0.000244141" y="0" width="32" height="32" filterUnits="userSpaceOnUse" color-interpolation-filters="sRGB">
<feFlood flood-opacity="0" result="BackgroundImageFix"/>
<feColorMatrix in="SourceAlpha" type="matrix" values="0 0 0 0 0 0 0 0 0 0 0 0 0 0 0 0 0 0 127 0" result="hardAlpha"/>
<feOffset dy="4"/>
<feGaussianBlur stdDeviation="2"/>
<feComposite in2="hardAlpha" operator="out"/>
<feColorMatrix type="matrix" values="0 0 0 0 0 0 0 0 0 0 0 0 0 0 0 0 0 0 0.25 0"/>
<feBlend mode="normal" in2="BackgroundImageFix" result="effect1_dropShadow_8368_6884"/>
<feBlend mode="normal" in="SourceGraphic" in2="effect1_dropShadow_8368_6884" result="shape"/>
</filter>
<clipPath id="clip0_8368_6884">
<rect width="24" height="24" fill="white" transform="translate(4.00024)"/>
</clipPath>
</defs>
</svg>
